<?xml version="1.0" encoding="UTF-8"?>
<svg id="Layer_1" xmlns="http://www.w3.org/2000/svg" version="1.1" xmlns:xlink="http://www.w3.org/1999/xlink" viewBox="0 0 88 88">
  <!-- Generator: Adobe Illustrator 30.3.0, SVG Export Plug-In . SVG Version: 2.1.3 Build 182)  -->
  <defs>
    <style>
      .st0 {
        fill: url(#Split_Complementary_12);
      }

      .st1 {
        fill: url(#Split_Complementary_1);
      }

      .st2 {
        fill: url(#Split_Complementary_11);
      }

      .st3 {
        fill: url(#Split_Complementary_13);
      }
    </style>
    <linearGradient id="Split_Complementary_1" data-name="Split Complementary 1" x1="44.6" y1="6.53" x2="44.6" y2="81.89" gradientUnits="userSpaceOnUse">
      <stop offset="0" stop-color="#0080c8"/>
      <stop offset=".49" stop-color="#833594"/>
      <stop offset="1" stop-color="#f2981f"/>
    </linearGradient>
    <linearGradient id="Split_Complementary_11" data-name="Split Complementary 1" x1="43.21" y1="6.53" x2="43.21" y2="81.89" xlink:href="#Split_Complementary_1"/>
    <linearGradient id="Split_Complementary_12" data-name="Split Complementary 1" x1="37.94" x2="37.94" y2="81.89" xlink:href="#Split_Complementary_1"/>
    <linearGradient id="Split_Complementary_13" data-name="Split Complementary 1" x1="50" y1="6.53" x2="50" y2="81.89" xlink:href="#Split_Complementary_1"/>
  </defs>
  <path class="st1" d="M48.03,26.62c5.79-1.88,8.89-8.08,7.02-13.87-1.88-5.71-8.08-8.89-13.87-7.02-5.79,1.88-8.89,8.08-7.02,13.87,1.88,5.79,8.08,8.89,13.87,7.02Z"/>
  <path class="st2" d="M39.79,61.38c-5.79,1.88-8.89,8.08-7.02,13.87,1.88,5.71,8.08,8.89,13.87,7.02s8.89-8.08,7.02-13.87c-1.88-5.79-8.08-8.89-13.87-7.02Z"/>
  <path class="st0" d="M53.49,38.53h0c-.16,0-.33.08-.49.08-.08,0-.16,0-.24.08-.08,0-.16.08-.24.08s-.16.08-.24.08-.16.08-.33.08c-.08,0-.16.08-.24.08-.16.08-.24.08-.33.16,0,0-.08,0-.08.08-2.53,1.06-4.57,2.94-5.71,5.38-1.71,3.51-4.81,6.28-8.57,7.51h0c-2.12.73-4.32.9-6.44.57-1.71-.24-3.34-.73-4.89-1.55-2.77-1.47-6.04-1.71-8.97-.57-5.38,1.96-8.32,7.83-6.77,13.3.82,2.94,2.77,5.3,5.38,6.69,2.69,1.39,5.71,1.63,8.57.73,2.94-.98,5.22-3.02,6.53-5.79,1.63-3.43,4.73-6.12,8.48-7.42,3.75-1.22,7.83-.9,11.18.9,2.69,1.47,5.79,1.71,8.65.82,2.86-.98,5.14-2.94,6.53-5.71,1.39-2.77,1.47-5.79.41-8.57-1.71-5.06-7.02-7.91-12.16-7.02Z"/>
  <path class="st3" d="M77.8,23.28c-1.96-5.3-7.83-8.24-13.3-6.69-3.02.9-5.55,2.94-6.93,5.79-1.71,3.51-4.81,6.28-8.57,7.51s-7.83.9-11.34-.98c-2.77-1.47-6.04-1.71-8.97-.57-5.38,1.96-8.32,7.83-6.77,13.3.82,2.94,2.77,5.3,5.38,6.69,1.31.73,2.69,1.06,4.16,1.22s3.02-.08,4.41-.49h0c1.47-.49,2.86-1.31,4-2.37,1.06-.98,1.88-2.12,2.53-3.43,1.47-3.18,4.16-5.63,7.51-7.02.08,0,.08-.08.16-.08.16-.08.33-.16.49-.16.08,0,.16-.08.24-.08h.08c.08,0,.16-.08.24-.08s.16-.08.24-.08h.08c.08,0,.24-.08.33-.08s.24-.08.33-.08c.16,0,.33-.08.49-.08h.16c3.18-.57,6.53-.08,9.3,1.39,2.69,1.47,5.79,1.71,8.65.82,2.86-.98,5.14-2.94,6.53-5.71,1.47-2.86,1.63-5.96.57-8.73Z"/>
</svg>